<svg xmlns="http://www.w3.org/2000/svg" version="1.1" xmlns:xlink="http://www.w3.org/1999/xlink" xmlns:svgjs="http://svgjs.com/svgjs" width="1024" height="1024" preserveAspectRatio="none" viewBox="0 0 1024 1024"><g mask="url(&quot;#SvgjsMask1046&quot;)" fill="none"><rect width="1024" height="1024" x="0" y="0" fill="#0e2a47"></rect><path d="M937.055253103517 340.75548863012546L1186.46025007349 196.76144649227362 1042.466207935638-52.643550477699364 793.0612109656652 91.3504916601525z" fill="rgba(28, 83, 142, 0.4)" class="triangle-float2"></path><path d="M444.74974402206254 594.3042150062483L596.8407106429477 513.4360135834125 515.972509220112 361.3450469625274 363.8815425992268 442.21324838536316z" fill="rgba(28, 83, 142, 0.4)" class="triangle-float3"></path><path d="M600.0356268724584 674.1267200231161L447.79931075837646 762.0203981120184 535.6929888472786 914.2567142261003 687.9293049613606 826.363036137198z" fill="rgba(28, 83, 142, 0.4)" class="triangle-float1"></path><path d="M486.554,655.283C527.414,657.266,574.279,652.96,594.637,617.478C614.941,582.09,594.533,539.795,572.528,505.439C552.682,474.454,523.337,447.739,486.554,448.729C451.073,449.684,425.911,479.079,408.239,509.861C390.665,540.473,378.493,576.724,395.23,607.802C412.666,640.179,449.824,653.501,486.554,655.283" fill="rgba(28, 83, 142, 0.4)" class="triangle-float3"></path><path d="M-34.74987846825461 482.73059451046765L-165.34830896985972 581.1435707520204 47.57037064327207 727.8347283836517z" fill="rgba(28, 83, 142, 0.4)" class="triangle-float2"></path><path d="M120.05221682062822 427.03641926437723L180.5104469450888 337.4034070564908 15.831813571028775 291.5325679737431z" fill="rgba(28, 83, 142, 0.4)" class="triangle-float1"></path><path d="M721.6338236494182 538.8086108084204L761.9812564918273 348.98886341786255 572.1615091012694 308.64143057545346 531.8140762588603 498.46117796601135z" fill="rgba(28, 83, 142, 0.4)" class="triangle-float1"></path><path d="M77.78490089994634 715.0953461567834L87.76430512776906 1000.868093237315 363.5576479804779 705.1159419289608z" fill="rgba(28, 83, 142, 0.4)" class="triangle-float2"></path><path d="M337.272,1106.409C385.012,1103.515,425.736,1075.815,450.41,1034.843C476.015,992.327,488.989,939.233,463.651,896.557C438.707,854.544,386.125,843.435,337.272,844.286C290.217,845.106,244.72,861.888,218.297,900.832C188.055,945.405,170.604,1003.551,197.584,1050.171C224.531,1096.733,283.573,1109.665,337.272,1106.409" fill="rgba(28, 83, 142, 0.4)" class="triangle-float1"></path><path d="M364.93631121234944 785.9034896501746L356.424114936644 948.325870299681 518.8464955861505 956.8380665753865 527.3586918618558 794.4156859258801z" fill="rgba(28, 83, 142, 0.4)" class="triangle-float2"></path><path d="M534.2591895990571 251.22170333533623L362.7164686864927 139.82055781695553 281.3861108652038 452.83521194499247z" fill="rgba(28, 83, 142, 0.4)" class="triangle-float2"></path><path d="M593.2437460020054 15.60444357412289L681.2007812166734 233.30574509942147 898.902082741972 145.3487098847535 810.945047527304-72.35259164054506z" fill="rgba(28, 83, 142, 0.4)" class="triangle-float1"></path><path d="M-19.694870455839556 474.6032029094264L200.18425028526016 537.8793675238712 155.19188142130307 342.99600726274775z" fill="rgba(28, 83, 142, 0.4)" class="triangle-float1"></path><path d="M936.9208617392386 551.2251312119002L780.8839846169026 484.991406473476 759.5518360704342 752.1635845261922z" fill="rgba(28, 83, 142, 0.4)" class="triangle-float2"></path><path d="M5.470059928838616 316.2997497517897L59.859936962332384 414.421685323553 179.84790180323034 283.7759019874307z" fill="rgba(28, 83, 142, 0.4)" class="triangle-float3"></path><path d="M748.8737367588546 972.7008031817684L521.4461555894602 775.0010230575903 323.7463754652821 1002.4286042269847 551.1739566346765 1200.1283843511628z" fill="rgba(28, 83, 142, 0.4)" class="triangle-float1"></path><path d="M963.6573064918615 138.23378464339507L729.1491618830704-96.72176901143482 649.1629983109419 182.2231331374277z" fill="rgba(28, 83, 142, 0.4)" class="triangle-float3"></path><path d="M129.3293600213022 162.07067547770455L307.4428664608887 199.92986999349426 345.3020609766784 21.816363553907763 167.1885545370919-16.042830961881947z" fill="rgba(28, 83, 142, 0.4)" class="triangle-float1"></path></g><defs><mask id="SvgjsMask1046"><rect width="1024" height="1024" fill="#ffffff"></rect></mask><style>
            @keyframes float1 {
                0%{transform: translate(0, 0)}
                50%{transform: translate(-10px, 0)}
                100%{transform: translate(0, 0)}
            }

            .triangle-float1 {
                animation: float1 5s infinite;
            }

            @keyframes float2 {
                0%{transform: translate(0, 0)}
                50%{transform: translate(-5px, -5px)}
                100%{transform: translate(0, 0)}
            }

            .triangle-float2 {
                animation: float2 4s infinite;
            }

            @keyframes float3 {
                0%{transform: translate(0, 0)}
                50%{transform: translate(0, -10px)}
                100%{transform: translate(0, 0)}
            }

            .triangle-float3 {
                animation: float3 6s infinite;
            }
        </style></defs></svg>